<?xml version="1.0" encoding="utf-8"?>
<!-- Generator: Adobe Illustrator 21.0.0, SVG Export Plug-In . SVG Version: 6.00 Build 0)  -->
<svg version="1.1" id="Layer_1" xmlns="http://www.w3.org/2000/svg" xmlns:xlink="http://www.w3.org/1999/xlink" x="0px" y="0px"
	 viewBox="0 0 100 100" style="enable-background:new 0 0 100 100;" xml:space="preserve">
<style type="text/css">
	.st0{clip-path:url(#SVGID_1_);fill:#92A48E;}
	.st1{clip-path:url(#SVGID_1_);fill:#EDB097;}
	.st2{clip-path:url(#SVGID_1_);fill:#F7F7F7;}
	.st3{clip-path:url(#SVGID_1_);fill:#FFFFFF;}
	.st4{clip-path:url(#SVGID_1_);fill:#009557;}
	.st5{clip-path:url(#SVGID_1_);fill:#00A681;}
	.st6{clip-path:url(#SVGID_1_);fill:#004242;}
	.st7{clip-path:url(#SVGID_1_);fill:#003E34;}
	.st8{clip-path:url(#SVGID_1_);fill:#DAE2E3;}
	.st9{clip-path:url(#SVGID_1_);}
	.st10{fill-rule:evenodd;clip-rule:evenodd;fill:#EDB097;}
	.st11{fill-rule:evenodd;clip-rule:evenodd;fill:#E3A68D;}
	.st12{fill-rule:evenodd;clip-rule:evenodd;fill:#44210C;}
	.st13{fill-rule:evenodd;clip-rule:evenodd;fill:#FFFFFF;}
	.st14{fill-rule:evenodd;clip-rule:evenodd;fill:#6F392A;}
	.st15{fill-rule:evenodd;clip-rule:evenodd;fill:#231F20;}
	.st16{fill-rule:evenodd;clip-rule:evenodd;fill:#D03D00;}
	.st17{fill-rule:evenodd;clip-rule:evenodd;fill:#ED7A68;}
	.st18{fill-rule:evenodd;clip-rule:evenodd;fill:#EDBBA5;}
	.st19{fill-rule:evenodd;clip-rule:evenodd;fill:#4F260D;}
</style>
<g>
	<defs>
		<circle id="SVGID_3_" cx="49.8" cy="50.2" r="50"/>
	</defs>
	<clipPath id="SVGID_1_">
		<use xlink:href="#SVGID_3_"  style="overflow:visible;"/>
	</clipPath>
	<circle class="st0" cx="50.8" cy="50.2" r="50"/>
	<polygon class="st1" points="61,76.4 38.6,76.4 43,51 56.7,50.6 	"/>
	<path class="st2" d="M38.7,67.5c0,0,7.1,5.6,11.1,8.5c0,0,0,27.9,0,37.7c-19.4-0.7-40.4-7.2-40.4-7.2l7.2-25.4L38.7,67.5z"/>
	<path class="st3" d="M61,67.5c0,0-7.1,5.6-11.1,8.5c0,0,0,27.9,0,37.7c19.4-0.7,40.4-7.2,40.4-7.2L83,81.2L61,67.5z"/>
	<polygon class="st4" points="51.7,82.7 47.8,82.7 45.6,77.9 49.8,76 53.9,77.9 	"/>
	<path class="st5" d="M46,113.5c1.3,0.1,2.6,0.2,3.9,0.2c1.2,0,2.5-0.1,3.7-0.2l-1.8-30.9h-4L46,113.5z"/>
	<polygon class="st2" points="59.1,65.1 49.8,76 58.3,82 62.8,68.7 	"/>
	<path class="st6" d="M59.5,66l-6.2,47.6c0,0,13.9-0.5,25.7-4.1L83,81.2L62.8,68.7L59.5,66z"/>
	<path class="st7" d="M90.2,106.6L83,81.2c-3,9.6-4.7,25-5.1,28.6C85.2,108.1,90.2,106.6,90.2,106.6z"/>
	<polygon class="st7" points="59.1,64.5 53.3,113.6 56.1,113.4 67.3,93.7 63.8,69.3 	"/>
	<path class="st7" d="M9.4,106.6l7.2-25.4c3,9.6,4.7,25,5.1,28.6C14.4,108.1,9.4,106.6,9.4,106.6z"/>
	<polygon class="st8" points="40.4,65.4 49.8,76 41.4,82 36.8,68.7 	"/>
	<path class="st6" d="M39.7,66.3l6.6,47.3c0,0-13.9-0.5-25.7-4.1l-3.9-28.3l20.1-12.5L39.7,66.3z"/>
	<polygon class="st7" points="40.5,65.1 46.4,113.6 43.6,113.4 32.3,93.7 35.8,69.3 	"/>
	<g class="st9">
		<path id="XMLID_42_" class="st10" d="M34.9,34.4c-0.9-0.4-3.2-1.4-4-0.5c-0.8,0.9-0.6,6,0.2,7.6c0.7,1.6,3.6,3.2,3.8,3.2
			C35.1,44.6,34.9,34.4,34.9,34.4z"/>
		<path id="XMLID_41_" class="st11" d="M31.8,34.9c-0.4,0.9,0.1,5.7,0.4,6.3c0.4,0.7,1.6,1.4,1.7,0.9c0.2-0.4,0.3-2.3-0.3-2.7
			c-0.6-0.4-0.8-1.5-0.4-2c0.4-0.4,0.8-0.3,0.8-0.7c0-0.4,0.1-1.5-0.2-1.8C33.5,34.6,32.1,34.1,31.8,34.9z"/>
		<path id="XMLID_40_" class="st10" d="M63.6,34.5c0.9-0.4,5.5-1.6,5.8-0.4c0.3,1.2-0.1,7.8-0.8,9.1c-0.7,1.3-5.4,3.1-5.4,2.7
			C63.3,45.4,63.6,34.5,63.6,34.5z"/>
		<path id="XMLID_39_" class="st11" d="M68.2,35.5c0.4,0.9-0.1,5.7-0.4,6.3c-0.4,0.7-1.6,1.4-1.7,0.9c-0.2-0.4-0.3-2.3,0.3-2.7
			c0.6-0.4,0.8-1.5,0.4-2c-0.4-0.4-0.8-0.3-0.8-0.7c0-0.4-0.1-1.5,0.2-1.8C66.5,35.2,67.8,34.7,68.2,35.5z"/>
		<path id="XMLID_38_" class="st10" d="M65.4,26.8c0,0-0.7,21.7-1.3,24.8c-0.6,3.1-8.9,9.1-10.3,9.9c-1.4,0.8-8.5,0.2-9.8-0.1
			c-1.4-0.3-7.9-8.1-9-10.4c-1.1-2.3-1.4-28.2-0.5-28.8c0.9-0.6,30.8-0.2,30.8-0.2L65.4,26.8z"/>
		<path id="XMLID_37_" class="st12" d="M35,40c-0.8,0-3.2-6.7-3.2-8.8c0-2.1-0.3-11.9,0.8-12.6c1.2-0.7,1.6-1.3,1.6-1.3
			s0.5-2.1,4.2-4.9c3.7-2.8,4.7-2.7,8-3.3c3.3-0.6,6.5-3.8,6.3-3.4c-0.2,0.4-1.4,2.8-1,2.6c0.3-0.2,3.4-4.2,3.3-3.8
			c-0.1,0.3-0.5,4.3-0.5,4.3s4-4.5,3.8-3.4c-0.2,1.1-0.7,4-0.7,4s0.7,0.3,2.6-0.5c1.9-0.7,5.8-0.3,5.5-0.2c-0.3,0.1-3.7,2.4-3.7,2.4
			s2.7,1.3,4.6,3.6c1.9,2.3,2.8,4.8,2.7,6.7c-0.1,1.9-1.5,14.4-2,15.3c-0.5,0.9-2.4,4.2-2.4,4.2s0.8-18.6,0.3-18.6
			c-0.5,0-29.4-0.5-29.4-0.5L35,40z"/>
		<path id="XMLID_36_" class="st12" d="M35.5,18.3l0.2,3.7c0,0,1.7,0.9,5.8,3c4.1,2.1,7.6,2.1,7.6,2.1l-3.2-2.7c0,0,1.3,0.7,6.5,1.8
			c5.1,1,7.8,0.7,7.8,0.7l-4.3-2.8l8.7,2.9c0,0-1.6-3.9-2.3-4.6l4.4-1L35.5,18.3z"/>
		<path id="XMLID_35_" class="st13" d="M41.8,38c1.9,0,4-1.3,3.9-1.8c-0.1-0.9-3.2-1.2-4-1.2c-1.7,0-2.8,0.3-3.3,0.8
			c-0.3,0.3-0.3,0.8-0.3,0.8C38.2,37,40.4,38,41.8,38z"/>
		<path id="XMLID_34_" class="st14" d="M42.1,34.9c-0.8,0-1.5,0.6-1.6,1.4c0,0.8,0.6,1.5,1.4,1.6c0.8,0,1.5-0.6,1.6-1.4
			C43.5,35.7,42.9,35,42.1,34.9z"/>
		
			<ellipse id="XMLID_33_" transform="matrix(4.487949e-02 -0.999 0.999 4.487949e-02 4.8594 76.8223)" class="st13" cx="42.6" cy="35.9" rx="0.5" ry="0.5"/>
		<path id="XMLID_32_" class="st15" d="M45.6,36c-1-1.1-3.9-1.2-5.4-1c-1.7,0.3-1.9,1-1.9,1C38.9,35.7,41.8,34.1,45.6,36z"/>
		<path id="XMLID_31_" class="st13" d="M58.2,38.2c-1.9,0-4-1.3-3.9-1.8c0.1-0.9,3.2-1.2,4-1.2c1.7,0,2.8,0.3,3.3,0.9
			c0.2,0.3,0.3,0.8,0.3,0.8C61.8,37.2,59.6,38.2,58.2,38.2z"/>
		<path id="XMLID_30_" class="st14" d="M58,35.1c0.8,0,1.5,0.6,1.5,1.5c0,0.8-0.6,1.5-1.4,1.5c-0.8,0-1.5-0.6-1.5-1.5
			C56.5,35.8,57.2,35.1,58,35.1z"/>
		
			<ellipse id="XMLID_29_" transform="matrix(0.9996 -2.878956e-02 2.878956e-02 0.9996 -1.0119 1.7017)" class="st13" cx="58.6" cy="36" rx="0.5" ry="0.5"/>
		<path id="XMLID_28_" class="st15" d="M54.4,36.1c1-1.1,4-1.1,5.4-0.9c1.7,0.3,1.9,1,1.9,1C61.2,35.9,58.3,34.3,54.4,36.1z"/>
		<path id="XMLID_27_" class="st12" d="M63.8,34.1c-0.3,0.2-9.7,0.1-10.4,0c-0.5-0.1-0.6-0.9-0.5-1.2C53.4,31.2,66.1,32.5,63.8,34.1
			z"/>
		<path id="XMLID_26_" class="st12" d="M36.2,34c0.3,0.2,9.6,0.1,10.4,0c0.5-0.1,0.6-0.9,0.5-1.2C46.5,31.2,33.9,32.4,36.2,34z"/>
		<path id="XMLID_25_" class="st16" d="M56.1,50.6c-2.1,1.6-9.5,1.3-12.5,0.2C46,52.5,54.8,52.6,56.1,50.6z"/>
		<path id="XMLID_24_" class="st17" d="M52.4,53.4c0,0-0.8,0.6-1.7,0.7c-0.8,0.1-3.2,0-3.3,0c-0.1,0-1.8-0.8-1.8-0.8
			C47.6,53.4,50.5,53.4,52.4,53.4z"/>
		<path id="XMLID_23_" class="st18" d="M47,45.7c1,0.8,2.1,1.4,2.9,1.4c0.8,0,1.8-0.6,2.9-1.4c0.5-0.3-0.7-1.1-0.9-2.3
			c-0.4-2.8-0.9-5.3-0.5-0.2c0.1,1,0.8,1.7,0.8,1.8c0.1,0.4-1.8,0.8-2.4,0.8c-0.5-0.1-2.4-0.4-2.4-0.8c0-0.1,0.7-0.8,0.8-1.8
			c0.2-1.9,0.5-7.5,0.4-7.3c-0.1,0.4-0.5,6.1-0.8,7.4c-0.2,0.6-0.6,1.2-0.8,1.6C46.9,45.4,47,45.7,47,45.7z"/>
		<path id="XMLID_22_" class="st19" d="M41.5,23.8c2.5,1.5,4.8,2.4,4.6,2.3C46,26,42,21.8,42,21.8s4.7,2.3,8.9,3.1
			c4.1,0.7,6.1,1,5.9,1c-0.2,0-4.9-3.2-4.9-3.4c0-0.2,5.1,1.1,7.3,1.8c2.2,0.7,4,1.5,4,1.5L58.5,21c0,0,1.4-0.6,3.6-0.2
			c2.3,0.4,5.8,2.3,5.7,2.1c-0.1-0.1-0.1-2.8-3.6-6.1c-3.4-3.3-6.9-4.6-6.9-4.6s2.3-0.3,3.7-1.4c1.5-1.1,2.1-1.5,2.1-1.5
			s-4.9,1.3-5.9,1.5C56.1,11,56,10.9,56,10.9L57,8.4c0,0-3.2,2.9-4.9,4.1c-1.7,1.2-4.9,1.7-4.7,1.7c0.1,0,5.7,0.6,8.5,1.5
			c2.8,0.9,4.7,2.5,4.5,2.4c-0.2-0.1-9.2-2.1-12-2.3c-2.8-0.1-3.9-0.1-3.2,0C46,15.9,52,20,52,20s-5.6-1.1-8.2-2.4
			c-2.6-1.2-3.6-1.7-3.6-1.7s1.4,2.1,2.2,3.1c0.8,1,1.1,1.2,0.9,1.1c-0.2-0.1-4-1.1-5.7-2.4c-1.7-1.3-2.2-2.2-2.2-2
			C36,19.9,37,21.1,41.5,23.8z"/>
	</g>
</g>
</svg>
